<?xml version="1.0" encoding="UTF-8"?>
<svg width="36px" height="36px" viewBox="0 0 36 36" version="1.1" xmlns="http://www.w3.org/2000/svg" xmlns:xlink="http://www.w3.org/1999/xlink">
    <!-- Generator: Sketch 42 (36781) - http://www.bohemiancoding.com/sketch -->
    <title>Page 1 Copy 6</title>
    <desc>Created with Sketch.</desc>
    <defs>
        <linearGradient x1="50%" y1="0%" x2="50%" y2="100%" id="linearGradient-1">
            <stop stop-color="#FACE27" offset="0%"></stop>
            <stop stop-color="#FFB74E" offset="100%"></stop>
        </linearGradient>
    </defs>
    <g id="Welcome" stroke="none" stroke-width="1" fill="none" fill-rule="evenodd">
        <g id="Player" transform="translate(-702.000000, -729.000000)" fill="url(#linearGradient-1)">
            <g id="stars" transform="translate(613.000000, 729.000000)">
                <path d="M116.832456,35.9999934 C116.404692,35.9999934 115.979045,35.862762 115.612693,35.5894059 L107.000233,29.1328906 L98.3867149,35.5894059 C97.6529512,36.1383314 96.6682466,36.1383314 95.9387181,35.5805523 C95.2091905,35.0283066 94.9021312,34.0477662 95.1753073,33.1524421 L98.3877738,22.3155939 L89.8515495,16.0295023 C89.1262563,15.4695097 88.8244929,14.4878715 89.1019026,13.5903251 C89.3814316,12.6972232 90.1776667,12.0885268 91.0776647,12.0818866 L101.648946,12.065286 L105.014942,1.49736263 C105.298706,0.602038513 106.098117,0 107.000233,0 C107.901291,0 108.700702,0.602047367 108.985525,1.49737148 L112.293285,12.065286 L122.920683,12.0818954 C123.8228,12.0885268 124.620093,12.6972232 124.897504,13.5903251 C125.175974,14.4878715 124.87421,15.4695097 124.147858,16.0295023 L115.611634,22.3155939 L118.8241,33.1524421 C119.099394,34.0477662 118.789159,35.0283066 118.061748,35.5805523 C117.694337,35.8616553 117.263396,35.9999934 116.832456,35.9999934" id="Page-1-Copy-6"></path>
            </g>
        </g>
    </g>
</svg>