<?xml version="1.0" encoding="UTF-8"?>
<svg width="38px" height="38px" viewBox="0 0 38 38" version="1.1" xmlns="http://www.w3.org/2000/svg" xmlns:xlink="http://www.w3.org/1999/xlink">
    <!-- Generator: Sketch 42 (36781) - http://www.bohemiancoding.com/sketch -->
    <title>Page 1 Copy 5</title>
    <desc>Created with Sketch.</desc>
    <defs></defs>
    <g id="Welcome" stroke="none" stroke-width="1" fill="none" fill-rule="evenodd">
        <g id="Player" transform="translate(-745.000000, -728.000000)" stroke="#FFAC33" fill="#FFFFFF">
            <g id="stars" transform="translate(613.000000, 729.000000)">
                <path d="M160.832456,35.9999934 C160.404692,35.9999934 159.979045,35.862762 159.612693,35.5894059 L151.000233,29.1328906 L142.386715,35.5894059 C141.652951,36.1383314 140.668247,36.1383314 139.938718,35.5805523 C139.20919,35.0283066 138.902131,34.0477662 139.175307,33.1524421 L142.387774,22.3155939 L133.85155,16.0295023 C133.126256,15.4695097 132.824493,14.4878715 133.101903,13.5903251 C133.381432,12.6972232 134.177667,12.0885268 135.077665,12.0818866 L145.648946,12.065286 L149.014942,1.49736263 C149.298706,0.602038513 150.098117,0 151.000233,0 C151.901291,0 152.700702,0.602047367 152.985525,1.49737148 L156.293285,12.065286 L166.920683,12.0818954 C167.8228,12.0885268 168.620093,12.6972232 168.897504,13.5903251 C169.175974,14.4878715 168.87421,15.4695097 168.147858,16.0295023 L159.611634,22.3155939 L162.8241,33.1524421 C163.099394,34.0477662 162.789159,35.0283066 162.061748,35.5805523 C161.694337,35.8616553 161.263396,35.9999934 160.832456,35.9999934" id="Page-1-Copy-5"></path>
            </g>
        </g>
    </g>
</svg>