<?xml version="1.0" encoding="UTF-8"?>
<svg width="30px" height="24px" viewBox="0 0 30 24" version="1.1" xmlns="http://www.w3.org/2000/svg" xmlns:xlink="http://www.w3.org/1999/xlink">
    <!-- Generator: Sketch 42 (36781) - http://www.bohemiancoding.com/sketch -->
    <title>Fill 1</title>
    <desc>Created with Sketch.</desc>
    <defs></defs>
    <g id="Welcome" stroke="none" stroke-width="1" fill="none" fill-rule="evenodd">
        <g id="Mouse-Click-on-Share" transform="translate(-962.000000, -123.000000)" fill="#FFFFFF">
            <g id="top-btns" transform="translate(812.000000, 110.000000)">
                <g id="share">
                    <g id="fb">
                        <g id="tw" transform="translate(110.000000, 0.000000)">
                            <g id="Page-1" transform="translate(40.000000, 13.000000)">
                                <path d="M30,2.83940411 C28.8921423,3.32523983 27.7074979,3.64912311 26.4680057,3.7894711 C27.7404065,3.04453307 28.7166407,1.85694665 29.1773284,0.442648402 C27.9817254,1.13360228 26.6654465,1.64102086 25.2614331,1.91093079 C24.142595,0.734141195 22.5411299,0 20.7751438,0 C17.374773,0 14.6215721,2.70985296 14.6215721,6.05667565 C14.6215721,6.53171454 14.6764198,6.9959566 14.7861042,7.43859421 C9.66361996,7.1794919 5.1334557,4.77192856 2.09506437,1.11200862 C1.56855499,2.00810225 1.26142543,3.04453307 1.26142543,4.15654169 C1.26142543,6.26180461 2.34734952,8.10796523 4.00365675,9.19838019 C2.99451506,9.1659897 2.0511884,8.89609057 1.21755057,8.44264534 L1.21755057,8.51822314 C1.21755057,11.4547879 3.33455213,13.8947374 6.15356474,14.4561402 C5.638026,14.5964914 5.08957974,14.6720649 4.53016503,14.6720649 C4.13528355,14.6720649 3.7513716,14.6288808 3.36745856,14.564103 C4.14625199,16.971661 6.42778788,18.720648 9.11517479,18.7746289 C7.00914057,20.3940626 4.35466227,21.3657221 1.46983571,21.3657221 C0.976234077,21.3657221 0.48263255,21.3333338 0,21.2793529 C2.72029302,22.9959516 5.9561251,24 9.43327279,24 C20.7532047,24 26.939674,14.7692298 26.939674,6.76923399 C26.939674,6.51012089 26.9287044,6.24021095 26.9177349,5.98110865 C28.135288,5.1174055 29.1773284,4.0485842 30,2.83940411 Z" id="Fill-1"></path>
                            </g>
                        </g>
                    </g>
                </g>
            </g>
        </g>
    </g>
</svg>